<?xml version="1.0" encoding="UTF-8"?>
<svg id="Layer_2" data-name="Layer 2" xmlns="http://www.w3.org/2000/svg" viewBox="0 0 327.67 299.61">
  <defs>
    <style>
      .cls-1 {
        fill: #fff;
      }
    </style>
  </defs>
  <g id="Layer_1-2" data-name="Layer 1">
    <g>
      <path d="M325.43,168.73c-2.07.55-4.16,1.03-6.32,1.18-50.79,3.54-102.47-5.81-153.03-2.03-30,2.24-60.21,11.26-72.37,41.63-11.69,29.21,6.83,66.4,41.1,59.1,12.84-2.73,28.9-18.65,19.19-31.68-9.14-12.27-25.62.8-13.44,11.92-26.47,9.26-37.91-25.18-16.33-39.82,22.12-15.01,51.45,1.24,56.87,25.8,6.49,29.41-15.05,55.29-42.75,62.32-52.17,13.24-104.8-29.15-124.96-74.61C-36.13,110.81,59.08-6.48,177.34,41.69c2.3.48,4.88-.34,6.04-2.52l12.39-36.61c3.63-6.16,24.24.47,30.32,2.28,69.27,20.68,112.09,92.88,99.34,163.88ZM240.33,64.13c-44.87,5.89-38.31,75.22,9.64,69.63,44-5.13,36.5-75.68-9.64-69.63Z"/>
      <path class="cls-1" d="M240.33,64.13c46.13-6.05,53.63,64.5,9.64,69.63-47.94,5.59-54.51-63.74-9.64-69.63ZM242.33,83.08c-20.52,2.96-16.59,35.24,5.68,31.72,18.75-2.96,15.92-34.84-5.68-31.72Z"/>
      <path d="M242.33,83.08c21.6-3.12,24.43,28.75,5.68,31.72-22.27,3.52-26.2-28.76-5.68-31.72Z"/>
    </g>
  </g>
</svg>